<svg xmlns="http://www.w3.org/2000/svg" viewBox="0 0 128 128">
  <path d="M64.004 25.602c-17.067 0-27.73 8.53-32 25.597 6.398-8.531 13.867-11.73 22.398-9.597 4.871 1.214 8.352 4.746 12.207 8.66C72.883 56.732 80.145 64.004 87.33 64.004c17.066 0 27.73-8.531 32-25.598-6.399 8.532-13.867 11.731-22.399 9.598-4.87-1.215-8.35-4.746-12.207-8.66-6.27-6.27-13.53-13.53-20.72-13.53zM32.004 64.004c-17.066 0-27.73 8.531-32 25.598C6.402 81.07 13.87 77.871 22.402 80.004c4.871 1.215 8.352 4.746 12.207 8.66 6.274 6.271 13.536 13.533 20.72 13.533 17.067 0 27.73-8.53 32-25.597-6.399 8.531-13.867 11.73-22.399 9.597-4.87-1.214-8.35-4.746-12.207-8.66-6.27-6.27-13.532-13.532-20.719-13.532z" fill="#06b6d4"/>
</svg> 