<svg id="visual" viewBox="0 0 900 600" width="900" height="600" xmlns="http://www.w3.org/2000/svg" xmlns:xlink="http://www.w3.org/1999/xlink" version="1.1"><g transform="translate(450.5982932334651 308.68446672724326)"><path d="M69.9 -98.8C98.7 -90.2 135.8 -84.6 163.6 -63.1C191.4 -41.7 210 -4.4 193.7 19.6C177.4 43.5 126.1 54.2 100.3 90.6C74.5 127 74.1 189.2 58.2 190.4C42.2 191.6 10.5 131.8 -29.7 114.1C-70 96.4 -118.9 120.9 -133.4 111.5C-147.8 102.1 -127.9 58.8 -138.4 17C-148.9 -24.8 -190 -65.2 -199 -109.8C-208.1 -154.5 -185.1 -203.4 -146.6 -207.5C-108.1 -211.6 -54.1 -170.8 -16.8 -144.7C20.5 -118.6 41.1 -107.3 69.9 -98.8" fill="#FF8C00"></path></g></svg>